<mxfile host="app.diagrams.net" modified="2024-05-20T10:56:26.402Z" agent="Mozilla/5.0 (Windows NT 10.0; Win64; x64) AppleWebKit/537.36 (KHTML, like Gecko) Chrome/123.0.0.0 Safari/537.36 OPR/109.0.0.0" etag="_el-TNn8uh1D5MB81WVo" version="24.4.4" type="google">
  <diagram name="Pagina-1" id="4jYPAVw-Gb8xnXvPYdBP">
    <mxGraphModel grid="1" page="1" gridSize="10" guides="1" tooltips="1" connect="1" arrows="1" fold="1" pageScale="1" pageWidth="827" pageHeight="1169" math="0" shadow="0">
      <root>
        <mxCell id="0" />
        <mxCell id="1" parent="0" />
        <mxCell id="fP07D6KMU1f-NJhMZYZp-1" value="UI" style="shape=folder;fontStyle=1;spacingTop=10;tabWidth=40;tabHeight=14;tabPosition=left;html=1;whiteSpace=wrap;" vertex="1" parent="1">
          <mxGeometry x="90" y="110" width="70" height="50" as="geometry" />
        </mxCell>
        <mxCell id="fP07D6KMU1f-NJhMZYZp-2" value="" style="endArrow=none;dashed=1;html=1;dashPattern=1 3;strokeWidth=2;rounded=0;entryX=0.5;entryY=1;entryDx=0;entryDy=0;entryPerimeter=0;" edge="1" parent="1">
          <mxGeometry width="50" height="50" relative="1" as="geometry">
            <mxPoint x="120" y="800" as="sourcePoint" />
            <mxPoint x="120" y="160" as="targetPoint" />
            <Array as="points">
              <mxPoint x="120" y="830" />
            </Array>
          </mxGeometry>
        </mxCell>
        <mxCell id="fP07D6KMU1f-NJhMZYZp-3" value="DutyMGR:&lt;div&gt;DutyManager&lt;/div&gt;" style="shape=umlLifeline;perimeter=lifelinePerimeter;whiteSpace=wrap;html=1;container=1;dropTarget=0;collapsible=0;recursiveResize=0;outlineConnect=0;portConstraint=eastwest;newEdgeStyle={&quot;curved&quot;:0,&quot;rounded&quot;:0};" vertex="1" parent="1">
          <mxGeometry x="270" y="120" width="100" height="740" as="geometry" />
        </mxCell>
        <mxCell id="fP07D6KMU1f-NJhMZYZp-4" value="" style="html=1;points=[[0,0,0,0,5],[0,1,0,0,-5],[1,0,0,0,5],[1,1,0,0,-5]];perimeter=orthogonalPerimeter;outlineConnect=0;targetShapes=umlLifeline;portConstraint=eastwest;newEdgeStyle={&quot;curved&quot;:0,&quot;rounded&quot;:0};" vertex="1" parent="fP07D6KMU1f-NJhMZYZp-3">
          <mxGeometry x="45" y="80" width="10" height="620" as="geometry" />
        </mxCell>
        <mxCell id="fP07D6KMU1f-NJhMZYZp-6" value="" style="html=1;verticalAlign=bottom;endArrow=open;dashed=1;endSize=8;curved=0;rounded=0;exitX=0;exitY=1;exitDx=0;exitDy=-5;" edge="1" parent="fP07D6KMU1f-NJhMZYZp-3" source="fP07D6KMU1f-NJhMZYZp-4">
          <mxGeometry relative="1" as="geometry">
            <mxPoint x="-150" y="695" as="targetPoint" />
          </mxGeometry>
        </mxCell>
        <mxCell id="fP07D6KMU1f-NJhMZYZp-7" value="" style="html=1;points=[[0,0,0,0,5],[0,1,0,0,-5],[1,0,0,0,5],[1,1,0,0,-5]];perimeter=orthogonalPerimeter;outlineConnect=0;targetShapes=umlLifeline;portConstraint=eastwest;newEdgeStyle={&quot;curved&quot;:0,&quot;rounded&quot;:0};" vertex="1" parent="fP07D6KMU1f-NJhMZYZp-3">
          <mxGeometry x="55" y="460" width="10" height="60" as="geometry" />
        </mxCell>
        <mxCell id="fP07D6KMU1f-NJhMZYZp-8" value="" style="html=1;align=left;spacingLeft=2;endArrow=block;rounded=0;edgeStyle=orthogonalEdgeStyle;curved=0;rounded=0;" edge="1" parent="fP07D6KMU1f-NJhMZYZp-3" target="fP07D6KMU1f-NJhMZYZp-7">
          <mxGeometry relative="1" as="geometry">
            <mxPoint x="55" y="410" as="sourcePoint" />
            <Array as="points">
              <mxPoint x="55" y="440" />
              <mxPoint x="90" y="440" />
              <mxPoint x="90" y="470" />
            </Array>
          </mxGeometry>
        </mxCell>
        <mxCell id="fP07D6KMU1f-NJhMZYZp-11" value="" style="html=1;verticalAlign=bottom;endArrow=block;curved=0;rounded=0;" edge="1" parent="1">
          <mxGeometry relative="1" as="geometry">
            <mxPoint x="325" y="350" as="sourcePoint" />
            <mxPoint x="615" y="350" as="targetPoint" />
            <mxPoint as="offset" />
          </mxGeometry>
        </mxCell>
        <mxCell id="fP07D6KMU1f-NJhMZYZp-13" value="ds.tasks:&amp;nbsp;&lt;div&gt;Task&lt;/div&gt;" style="shape=umlLifeline;perimeter=lifelinePerimeter;whiteSpace=wrap;html=1;container=1;dropTarget=0;collapsible=0;recursiveResize=0;outlineConnect=0;portConstraint=eastwest;newEdgeStyle={&quot;curved&quot;:0,&quot;rounded&quot;:0};" vertex="1" parent="1">
          <mxGeometry x="570" y="120" width="100" height="740" as="geometry" />
        </mxCell>
        <mxCell id="fP07D6KMU1f-NJhMZYZp-14" value="" style="html=1;points=[[0,0,0,0,5],[0,1,0,0,-5],[1,0,0,0,5],[1,1,0,0,-5]];perimeter=orthogonalPerimeter;outlineConnect=0;targetShapes=umlLifeline;portConstraint=eastwest;newEdgeStyle={&quot;curved&quot;:0,&quot;rounded&quot;:0};" vertex="1" parent="fP07D6KMU1f-NJhMZYZp-13">
          <mxGeometry x="45" y="230" width="10" height="140" as="geometry" />
        </mxCell>
        <mxCell id="v3wNzhvbABDWjOq7-IiI-3" value="this.name = name" style="html=1;align=left;spacingLeft=2;endArrow=block;rounded=0;edgeStyle=orthogonalEdgeStyle;curved=0;rounded=0;" edge="1" parent="fP07D6KMU1f-NJhMZYZp-13">
          <mxGeometry relative="1" as="geometry">
            <mxPoint x="55" y="230" as="sourcePoint" />
            <Array as="points">
              <mxPoint x="80" y="230" />
              <mxPoint x="80" y="250" />
            </Array>
            <mxPoint x="55" y="250" as="targetPoint" />
          </mxGeometry>
        </mxCell>
        <mxCell id="fP07D6KMU1f-NJhMZYZp-16" value="er:&lt;div&gt;DutyEventReceiver&lt;/div&gt;" style="shape=umlLifeline;perimeter=lifelinePerimeter;whiteSpace=wrap;html=1;container=1;dropTarget=0;collapsible=0;recursiveResize=0;outlineConnect=0;portConstraint=eastwest;newEdgeStyle={&quot;curved&quot;:0,&quot;rounded&quot;:0};" vertex="1" parent="1">
          <mxGeometry x="860" y="120" width="120" height="740" as="geometry" />
        </mxCell>
        <mxCell id="VvwXMPxeqUueOpN9VDhK-20" value="" style="html=1;points=[[0,0,0,0,5],[0,1,0,0,-5],[1,0,0,0,5],[1,1,0,0,-5]];perimeter=orthogonalPerimeter;outlineConnect=0;targetShapes=umlLifeline;portConstraint=eastwest;newEdgeStyle={&quot;curved&quot;:0,&quot;rounded&quot;:0};" vertex="1" parent="fP07D6KMU1f-NJhMZYZp-16">
          <mxGeometry x="55" y="613" width="10" height="20" as="geometry" />
        </mxCell>
        <mxCell id="fP07D6KMU1f-NJhMZYZp-23" value="" style="html=1;verticalAlign=bottom;endArrow=block;curved=0;rounded=0;" edge="1" parent="1" target="VvwXMPxeqUueOpN9VDhK-20">
          <mxGeometry relative="1" as="geometry">
            <mxPoint x="330" y="751" as="sourcePoint" />
            <mxPoint x="1140" y="750" as="targetPoint" />
          </mxGeometry>
        </mxCell>
        <mxCell id="fP07D6KMU1f-NJhMZYZp-24" value="&lt;font style=&quot;font-size: 10px;&quot;&gt;alt [!user.isChef()&amp;nbsp;&lt;/font&gt;&lt;div&gt;&lt;font style=&quot;font-size: 10px;&quot;&gt;|| task.completed]&lt;/font&gt;&lt;/div&gt;" style="shape=umlFrame;whiteSpace=wrap;html=1;pointerEvents=0;width=100;height=30;" vertex="1" parent="1">
          <mxGeometry y="230" width="950" height="630" as="geometry" />
        </mxCell>
        <mxCell id="fP07D6KMU1f-NJhMZYZp-26" value="" style="endArrow=none;dashed=1;html=1;rounded=0;" edge="1" parent="1">
          <mxGeometry width="50" height="50" relative="1" as="geometry">
            <mxPoint x="-10" y="280" as="sourcePoint" />
            <mxPoint x="980" y="280" as="targetPoint" />
          </mxGeometry>
        </mxCell>
        <mxCell id="fP07D6KMU1f-NJhMZYZp-30" value="for each er in receivers" style="shape=umlFrame;whiteSpace=wrap;html=1;pointerEvents=0;width=80;height=30;" vertex="1" parent="1">
          <mxGeometry x="220" y="720" width="720" height="60" as="geometry" />
        </mxCell>
        <mxCell id="fP07D6KMU1f-NJhMZYZp-32" value="&lt;font style=&quot;font-size: 36px;&quot;&gt;2b - updateTask&lt;/font&gt;" style="text;html=1;align=center;verticalAlign=middle;whiteSpace=wrap;rounded=0;" vertex="1" parent="1">
          <mxGeometry y="10" width="690" height="90" as="geometry" />
        </mxCell>
        <mxCell id="fP07D6KMU1f-NJhMZYZp-33" value="updateTask(ds,task, desc?,name?,qty?,completed?)" style="text;html=1;align=center;verticalAlign=middle;whiteSpace=wrap;rounded=0;" vertex="1" parent="1">
          <mxGeometry x="130" y="170" width="170" height="30" as="geometry" />
        </mxCell>
        <mxCell id="VvwXMPxeqUueOpN9VDhK-5" value="updateTask(ds, desc?, name?,qty?, copmleted?)" style="text;html=1;align=center;verticalAlign=middle;whiteSpace=wrap;rounded=0;" vertex="1" parent="1">
          <mxGeometry x="370" y="330" width="206" height="30" as="geometry" />
        </mxCell>
        <mxCell id="VvwXMPxeqUueOpN9VDhK-16" value="" style="dashed=0;outlineConnect=0;html=1;align=center;labelPosition=center;verticalLabelPosition=bottom;verticalAlign=top;shape=mxgraph.webicons.stackoverflow;gradientColor=#DFDEDE" vertex="1" parent="1">
          <mxGeometry x="220" y="690" height="28.5" as="geometry" />
        </mxCell>
        <mxCell id="fP07D6KMU1f-NJhMZYZp-45" value="notifyTaskUpdated(task)" style="text;html=1;align=center;verticalAlign=middle;resizable=0;points=[];autosize=1;strokeColor=none;fillColor=none;" vertex="1" parent="1">
          <mxGeometry x="355" y="560" width="150" height="30" as="geometry" />
        </mxCell>
        <mxCell id="VvwXMPxeqUueOpN9VDhK-21" value="updateTaskUpdated(task)" style="text;html=1;align=center;verticalAlign=middle;resizable=0;points=[];autosize=1;strokeColor=none;fillColor=none;" vertex="1" parent="1">
          <mxGeometry x="500" y="728" width="160" height="30" as="geometry" />
        </mxCell>
        <mxCell id="VvwXMPxeqUueOpN9VDhK-22" value="task" style="text;html=1;align=center;verticalAlign=middle;resizable=0;points=[];autosize=1;strokeColor=none;fillColor=none;" vertex="1" parent="1">
          <mxGeometry x="190" y="790" width="50" height="30" as="geometry" />
        </mxCell>
        <mxCell id="fP07D6KMU1f-NJhMZYZp-5" value="" style="html=1;verticalAlign=bottom;endArrow=block;curved=0;rounded=0;entryX=0;entryY=0;entryDx=0;entryDy=5;" edge="1" parent="1">
          <mxGeometry relative="1" as="geometry">
            <mxPoint x="116" y="200" as="sourcePoint" />
            <mxPoint x="315" y="200.0000000000001" as="targetPoint" />
          </mxGeometry>
        </mxCell>
        <mxCell id="L1BQEHJ4tx-dW8rKxKvZ-1" value="getCurrentUser()" style="html=1;verticalAlign=bottom;endArrow=block;curved=0;rounded=0;" edge="1" parent="1" target="L1BQEHJ4tx-dW8rKxKvZ-3">
          <mxGeometry width="80" relative="1" as="geometry">
            <mxPoint x="320" y="200" as="sourcePoint" />
            <mxPoint x="400" y="200" as="targetPoint" />
          </mxGeometry>
        </mxCell>
        <mxCell id="L1BQEHJ4tx-dW8rKxKvZ-2" value="userMgr.&lt;div&gt;UserManager&lt;/div&gt;" style="shape=umlLifeline;perimeter=lifelinePerimeter;whiteSpace=wrap;html=1;container=1;dropTarget=0;collapsible=0;recursiveResize=0;outlineConnect=0;portConstraint=eastwest;newEdgeStyle={&quot;curved&quot;:0,&quot;rounded&quot;:0};" vertex="1" parent="1">
          <mxGeometry x="390" y="120" width="100" height="740" as="geometry" />
        </mxCell>
        <mxCell id="L1BQEHJ4tx-dW8rKxKvZ-3" value="" style="html=1;points=[[0,0,0,0,5],[0,1,0,0,-5],[1,0,0,0,5],[1,1,0,0,-5]];perimeter=orthogonalPerimeter;outlineConnect=0;targetShapes=umlLifeline;portConstraint=eastwest;newEdgeStyle={&quot;curved&quot;:0,&quot;rounded&quot;:0};" vertex="1" parent="L1BQEHJ4tx-dW8rKxKvZ-2">
          <mxGeometry x="45" y="80" width="10" height="20" as="geometry" />
        </mxCell>
        <mxCell id="L1BQEHJ4tx-dW8rKxKvZ-4" value="user" style="html=1;verticalAlign=bottom;endArrow=open;dashed=1;endSize=8;curved=0;rounded=0;" edge="1" parent="1">
          <mxGeometry relative="1" as="geometry">
            <mxPoint x="435" y="220" as="sourcePoint" />
            <mxPoint x="325" y="220" as="targetPoint" />
          </mxGeometry>
        </mxCell>
        <mxCell id="L1BQEHJ4tx-dW8rKxKvZ-5" value="throw UseCaseLogicException" style="html=1;verticalAlign=bottom;endArrow=open;dashed=1;endSize=8;curved=0;rounded=0;" edge="1" parent="1" source="fP07D6KMU1f-NJhMZYZp-4">
          <mxGeometry relative="1" as="geometry">
            <mxPoint x="240" y="260" as="sourcePoint" />
            <mxPoint x="120" y="260" as="targetPoint" />
          </mxGeometry>
        </mxCell>
        <mxCell id="v3wNzhvbABDWjOq7-IiI-4" value="this.desc = desc" style="html=1;align=left;spacingLeft=2;endArrow=block;rounded=0;edgeStyle=orthogonalEdgeStyle;curved=0;rounded=0;" edge="1" parent="1">
          <mxGeometry relative="1" as="geometry">
            <mxPoint x="625" y="380" as="sourcePoint" />
            <Array as="points">
              <mxPoint x="650" y="380" />
              <mxPoint x="650" y="400" />
            </Array>
            <mxPoint x="625" y="400" as="targetPoint" />
          </mxGeometry>
        </mxCell>
        <mxCell id="v3wNzhvbABDWjOq7-IiI-5" value="this.qty = qty" style="html=1;align=left;spacingLeft=2;endArrow=block;rounded=0;edgeStyle=orthogonalEdgeStyle;curved=0;rounded=0;" edge="1" parent="1">
          <mxGeometry relative="1" as="geometry">
            <mxPoint x="625" y="410" as="sourcePoint" />
            <Array as="points">
              <mxPoint x="650" y="410" />
              <mxPoint x="650" y="430" />
            </Array>
            <mxPoint x="625" y="430" as="targetPoint" />
          </mxGeometry>
        </mxCell>
        <mxCell id="v3wNzhvbABDWjOq7-IiI-6" value="this.completed = completed" style="html=1;align=left;spacingLeft=2;endArrow=block;rounded=0;edgeStyle=orthogonalEdgeStyle;curved=0;rounded=0;" edge="1" parent="1">
          <mxGeometry relative="1" as="geometry">
            <mxPoint x="625" y="440" as="sourcePoint" />
            <Array as="points">
              <mxPoint x="650" y="440" />
              <mxPoint x="650" y="460" />
            </Array>
            <mxPoint x="625" y="460" as="targetPoint" />
          </mxGeometry>
        </mxCell>
        <mxCell id="v3wNzhvbABDWjOq7-IiI-9" value="task" style="html=1;verticalAlign=bottom;endArrow=open;dashed=1;endSize=8;curved=0;rounded=0;" edge="1" parent="1">
          <mxGeometry relative="1" as="geometry">
            <mxPoint x="615" y="489.76" as="sourcePoint" />
            <mxPoint x="325" y="489.76" as="targetPoint" />
          </mxGeometry>
        </mxCell>
      </root>
    </mxGraphModel>
  </diagram>
</mxfile>
